# xmcd
#
# Track frame offsets:
#	150
#	16903
#	39201
#	59630
#	78148
#	100612
#	117418
#	135229
#	150270
#	167636
#	187232
#	206930
#	223023
#	240510
#	255997
#	273331
#
# Disc length: 3983 seconds
#
# Revision: 0
# Processed by: cddbd v1.5.2PL0 Copyright (c) Steve Scherf et al.
# Submitted via: EasyCDDAExtractor 9.1.0.1
#
DISCID=ce0f8d10
DTITLE=ΜΠΑΜΠΗΣ ΣΤΟΚΑΣ - ΤΡΑΓΟΥΔΗΣΤΕ, ΜΗΝ ΝΤΡΕΠΕΣΤΕ [CD 1)
DYEAR=2008
DGENRE=ΕΝΤΕΧΝΟ
TTITLE0=ΤΙ ΕΙΝΑΙ ΑΥΤΟ ΠΟΥ ΜΑΣ ΧΩΡΙΖΕΙ
TTITLE1=SENOR (TALES OF YANKEE POWER)
TTITLE2=Μ' ΟΠΟΙΑ ΝΑ 'ΝΑΙ
TTITLE3=ΕΙΚΟΝΑ ΤΟΥ ΧΕΙΜΩΝΑ
TTITLE4=ΝΑ 'ΡΘΕΙΣ ΟΠΩΣ ΘΑ 'ΡΘΟΥΝ ΤΑ ΧΕΛΙΔΟΝΙΑ
TTITLE5=ΜΑΣΚΕΣ
TTITLE6=ΦΩΤΙΑ
TTITLE7=ΕΝΑΣ ΚΟΜΠΟΣ Η ΧΑΡΑ ΜΟΥ
TTITLE8=ΝΟΤΟΣ
TTITLE9=ΑΝΟΗΤΕΣ ΑΓΑΠΕΣ
TTITLE10=ΠΟΥΛΑ ΜΕ
TTITLE11=Ο ΒΑΣΙΛΙΑΣ
TTITLE12=ΜΙΑ ΖΩΗ ΣΤΟ ΡΙΣΚΟ
TTITLE13=ΛΕΝΕ ΓΙΑ ΜΕΝΑ
TTITLE14=ΜΙΑ ΣΥΝΟΥΣΙΑ ΜΥΣΤΙΚΗ
TTITLE15=ΜΗ ΜΕ ΦΟΒΑΣΑΙ
EXTD=
EXTT0=
EXTT1=
EXTT2=
EXTT3=
EXTT4=
EXTT5=
EXTT6=
EXTT7=
EXTT8=
EXTT9=
EXTT10=
EXTT11=
EXTT12=
EXTT13=
EXTT14=
EXTT15=
PLAYORDER=
